<?xml version="1.0" ?><!DOCTYPE svg  PUBLIC '-//W3C//DTD SVG 1.1//EN'  'http://www.w3.org/Graphics/SVG/1.1/DTD/svg11.dtd'><svg height="8.4666mm" version="1.1" viewBox="0 0 846.66 846.66" width="8.4666mm" xml:space="preserve" xmlns="http://www.w3.org/2000/svg" xmlns:xlink="http://www.w3.org/1999/xlink"><defs><style type="text/css">
   <![CDATA[
    .fil0 {fill:white;fill-rule:nonzero}
   ]]>
  </style></defs><g id="Layer_x0020_1"><path class="fil0" d="M788.84 386.49l-73.58 -118.49 -127.46 85.35c-7.17,4.79 -16.24,4.54 -23.01,0.06l-107.57 -71.31c-36.67,29 -73.34,58.01 -110.02,87.02l14.31 16.22 99.47 -33.53c6.47,-2.16 13.25,-0.96 18.45,2.65l154.33 103.28 155.08 -71.25zm-369.29 242.53c-7.42,4.86 -17.44,4.57 -24.64,-1.39l-151.84 -125.7 -223.26 -93.59c-12.55,-5.22 -16.88,-21.06 -8.39,-31.92l119.89 -153.97c6.39,-8.42 18.25,-10.76 27.41,-5.1l117.4 72.52 97.32 5.64 68.78 -54.41c6.87,-6.24 17.34,-7.3 25.44,-1.94l108.56 72 132.85 -88.96c9.7,-7.3 23.73,-4.73 30.17,5.61l97.28 156.73c6.56,10.6 2.42,24.61 -9,29.83l-185.83 85.38c-74.05,43.09 -148.09,86.18 -222.14,129.27zm83.45 -96.62l-41.72 -31.92c-21.69,-16.57 3.53,-49.58 25.21,-33.02l55.34 42.34 50.87 -29.6 -128.18 -85.78 -102.84 34.66c-7.66,2.55 -16.44,0.49 -22.12,-5.93l-37.92 -42.97c-7.62,-9.3 -6.94,-22.4 2.69,-30.01l20.09 -15.89 -55.83 -3.24c-3.99,-0.22 -7.65,-1.55 -10.71,-3.67l-105.12 -64.94 -91.94 118.07 201.13 84.28c1.96,0.81 3.73,1.89 5.28,3.17l143.04 118.41 26.46 -15.4 -38.68 -34.97c-20.19,-18.27 7.62,-49.01 27.82,-30.74l48.46 43.83 28.67 -16.68z"/></g></svg>